/* XPM */
static char * Youcam_xpm[] = {
"32 32 556 2",
"  	c None",
". 	c #E2E2E2",
"+ 	c #E6E6E6",
"@ 	c #E8E8E8",
"# 	c #E9E9E9",
"$ 	c #EAEAEA",
"% 	c #E7E7E7",
"& 	c #E0E0E0",
"* 	c #DFDFDF",
"= 	c #F5F5F5",
"- 	c #FDFDFD",
"; 	c #FEFEFE",
"> 	c #FFFFFF",
", 	c #F4F4F4",
"' 	c #DBDBDB",
") 	c #F5F5F6",
"! 	c #D7D7D7",
"~ 	c #FEFEFF",
"{ 	c #FCFCFC",
"] 	c #E4E4E4",
"^ 	c #E9E9EA",
"/ 	c #E3E3E4",
"( 	c #E3E4E4",
"_ 	c #DBDDE1",
": 	c #EBEBEE",
"< 	c #EBEBEB",
"[ 	c #E0E0E1",
"} 	c #CCCCCE",
"| 	c #CBCCCE",
"1 	c #BDBCBB",
"2 	c #B6B4B1",
"3 	c #B6B3B1",
"4 	c #BEBCBB",
"5 	c #CCCDCE",
"6 	c #CDCDCE",
"7 	c #FDF9FB",
"8 	c #003E57",
"9 	c #1C5067",
"0 	c #E8E8E9",
"a 	c #D0D0D2",
"b 	c #C2C1C0",
"c 	c #8A867F",
"d 	c #4E4A44",
"e 	c #4A4844",
"f 	c #464442",
"g 	c #41403E",
"h 	c #464340",
"i 	c #4F4B45",
"j 	c #89857F",
"k 	c #D1D3D3",
"l 	c #E8E9E9",
"m 	c #708593",
"n 	c #93A4AF",
"o 	c #EAEAEB",
"p 	c #DEDFDF",
"q 	c #D7D6D8",
"r 	c #938F89",
"s 	c #484542",
"t 	c #4F4F50",
"u 	c #515152",
"v 	c #434343",
"w 	c #4E4E4E",
"x 	c #484848",
"y 	c #454545",
"z 	c #393939",
"A 	c #2B2C2C",
"B 	c #3A3733",
"C 	c #928D88",
"D 	c #D8D8D9",
"E 	c #E0DFE0",
"F 	c #FDFDFE",
"G 	c #E2E2E3",
"H 	c #D9D9DA",
"I 	c #76726B",
"J 	c #535353",
"K 	c #5B5B5B",
"L 	c #444444",
"M 	c #484946",
"N 	c #39383C",
"O 	c #333042",
"P 	c #363347",
"Q 	c #3F3D44",
"R 	c #474744",
"S 	c #3E3E3E",
"T 	c #303030",
"U 	c #292929",
"V 	c #716C65",
"W 	c #DADBDB",
"X 	c #EDEEEE",
"Y 	c #E2E2E4",
"Z 	c #7E7974",
"` 	c #545454",
" .	c #464646",
"..	c #4C4D4C",
"+.	c #302C39",
"@.	c #42396C",
"#.	c #6E68BE",
"$.	c #A6AEFF",
"%.	c #BAD6FF",
"&.	c #90B0EB",
"*.	c #667CA9",
"=.	c #38384B",
"-.	c #41413E",
";.	c #353535",
">.	c #2A2A2A",
",.	c #77736C",
"'.	c #E4E4E6",
").	c #EEEEEF",
"!.	c #EAEBEB",
"~.	c #FDFEFE",
"{.	c #E1E1E2",
"].	c #AEACA8",
"^.	c #2F2E2D",
"/.	c #3C3C3C",
"(.	c #484947",
"_.	c #2A233C",
":.	c #4A416E",
"<.	c #4D477C",
"[.	c #7775D3",
"}.	c #F1F3FF",
"|.	c #A9D0FD",
"1.	c #7396C0",
"2.	c #94C6DC",
"3.	c #6A749B",
"4.	c #403F3D",
"5.	c #333333",
"6.	c #282726",
"7.	c #ABA8A5",
"8.	c #FBFBFB",
"9.	c #FCFCFD",
"0.	c #EEEFEF",
"a.	c #E7E7E9",
"b.	c #45433F",
"c.	c #2C2C2C",
"d.	c #424242",
"e.	c #201C33",
"f.	c #4B4365",
"g.	c #3F385C",
"h.	c #544F83",
"i.	c #8187DA",
"j.	c #EEF9FF",
"k.	c #ACE0FE",
"l.	c #779DC2",
"m.	c #749CB2",
"n.	c #C8F6F4",
"o.	c #6D70B3",
"p.	c #3E3D3A",
"q.	c #262626",
"r.	c #3F3C39",
"s.	c #EFEFF0",
"t.	c #E7E8E8",
"u.	c #FCFDFD",
"v.	c #B8B6B4",
"w.	c #272727",
"x.	c #2C2C2B",
"y.	c #1F1B46",
"z.	c #413C59",
"A.	c #423F5F",
"B.	c #56557E",
"C.	c #6F78B1",
"D.	c #97B1ED",
"E.	c #A6D6F8",
"F.	c #85B4D8",
"G.	c #739CAF",
"H.	c #729EA6",
"I.	c #87C3C7",
"J.	c #C9F8FF",
"K.	c #262B2A",
"L.	c #1C1C1B",
"M.	c #B5B3B0",
"N.	c #EBEBEC",
"O.	c #FBFBFC",
"P.	c #E6E7E7",
"Q.	c #F9F9F9",
"R.	c #F0F0F1",
"S.	c #7A7876",
"T.	c #2A2A2B",
"U.	c #11111B",
"V.	c #2A2B4C",
"W.	c #393958",
"X.	c #44435F",
"Y.	c #565575",
"Z.	c #5F688E",
"`.	c #7081A6",
" +	c #7794B0",
".+	c #698DA0",
"++	c #6D9197",
"@+	c #668E90",
"#+	c #75ADA8",
"$+	c #639DAA",
"%+	c #51705F",
"&+	c #363636",
"*+	c #191919",
"=+	c #706F6D",
"-+	c #F3F3F3",
";+	c #E6E5E6",
">+	c #F7F7F7",
",+	c #F8F8F8",
"'+	c #4D4B49",
")+	c #07071A",
"!+	c #303554",
"~+	c #2D3253",
"{+	c #414563",
"]+	c #525471",
"^+	c #5F6083",
"/+	c #60698E",
"(+	c #627292",
"_+	c #677C8F",
":+	c #617C86",
"<+	c #52757E",
"[+	c #4F7882",
"}+	c #111F51",
"|+	c #203036",
"1+	c #313131",
"2+	c #1F1F1F",
"3+	c #3F3D3B",
"4+	c #FAFAFA",
"5+	c #E5E5E5",
"6+	c #FAFBFB",
"7+	c #353432",
"8+	c #3A3A3A",
"9+	c #40403F",
"0+	c #080720",
"a+	c #3B4665",
"b+	c #384466",
"c+	c #454D73",
"d+	c #535481",
"e+	c #5F5A8C",
"f+	c #696294",
"g+	c #6B6896",
"h+	c #616890",
"i+	c #536486",
"j+	c #405977",
"k+	c #49717D",
"l+	c #12274F",
"m+	c #0D1124",
"n+	c #2E2E2D",
"o+	c #232323",
"p+	c #282826",
"q+	c #F7F8F7",
"r+	c #F9F9FA",
"s+	c #FAFAFB",
"t+	c #F8F8F7",
"u+	c #323231",
"v+	c #3B3B3B",
"w+	c #424241",
"x+	c #080823",
"y+	c #455273",
"z+	c #354A6E",
"A+	c #56648B",
"B+	c #706DA6",
"C+	c #6F67A8",
"D+	c #7466AD",
"E+	c #756AAD",
"F+	c #706EA9",
"G+	c #616A9C",
"H+	c #495C88",
"I+	c #4C6B84",
"J+	c #0F254A",
"K+	c #080A1C",
"L+	c #2F2F2E",
"M+	c #262525",
"N+	c #F9FAFA",
"O+	c #F8F9F9",
"P+	c #E4E5E5",
"Q+	c #464747",
"R+	c #373737",
"S+	c #474746",
"T+	c #0A0A2B",
"U+	c #394268",
"V+	c #26466C",
"W+	c #406081",
"X+	c #567192",
"Y+	c #857CC0",
"Z+	c #907FCC",
"`+	c #8988C1",
" @	c #7D88B5",
".@	c #6678A1",
"+@	c #646FA2",
"@@	c #4C6789",
"#@	c #08173D",
"$@	c #05061C",
"%@	c #202020",
"&@	c #383838",
"*@	c #F8F8F9",
"=@	c #F8F7F8",
"-@	c #E3E3E3",
";@	c #FDFCFD",
">@	c #727273",
",@	c #434342",
"'@	c #15163C",
")@	c #0E1645",
"!@	c #254F74",
"~@	c #3F6689",
"{@	c #497793",
"]@	c #9598D5",
"^@	c #AFA9EB",
"/@	c #559BA4",
"(@	c #548F9F",
"_@	c #537E9A",
":@	c #7E85B8",
"<@	c #305378",
"[@	c #070C36",
"}@	c #090A2A",
"|@	c #343433",
"1@	c #151515",
"2@	c #686869",
"3@	c #F7F8F8",
"4@	c #F6F6F6",
"5@	c #DEDEDF",
"6@	c #F7F7F8",
"7@	c #B6B7B8",
"8@	c #242424",
"9@	c #343434",
"0@	c #2C2D35",
"a@	c #092F70",
"b@	c #0E3665",
"c@	c #2A6087",
"d@	c #3E7E9A",
"e@	c #8FB4D5",
"f@	c #C2DCEA",
"g@	c #5ABED2",
"h@	c #51A5B9",
"i@	c #41849B",
"j@	c #245C7D",
"k@	c #0B2B59",
"l@	c #062160",
"m@	c #1D1D26",
"n@	c #121312",
"o@	c #B0B1B3",
"p@	c #F6F7F7",
"q@	c #F6F6F7",
"r@	c #DFE0E0",
"s@	c #DCDCDC",
"t@	c #F4F5F5",
"u@	c #F6F5F6",
"v@	c #2E3032",
"w@	c #3C3B39",
"x@	c #163A59",
"y@	c #0B4581",
"z@	c #0C4073",
"A@	c #1B6C93",
"B@	c #309CBA",
"C@	c #48CBF2",
"D@	c #54DAFF",
"E@	c #35A9D2",
"F@	c #186F95",
"G@	c #0B3D6B",
"H@	c #093872",
"I@	c #0D2F4E",
"J@	c #333231",
"K@	c #161616",
"L@	c #252628",
"M@	c #FCFDFC",
"N@	c #F3F4F4",
"O@	c #DDDDDD",
"P@	c #D8D8D8",
"Q@	c #F1F1F2",
"R@	c #F4F4F5",
"S@	c #ABADAE",
"T@	c #1C1C1D",
"U@	c #282828",
"V@	c #3B3937",
"W@	c #1A4A6F",
"X@	c #0C63A0",
"Y@	c #0B5285",
"Z@	c #0E6EA4",
"`@	c #1194DC",
" #	c #119CF0",
".#	c #0B72B5",
"+#	c #095083",
"@#	c #0A5F96",
"##	c #114064",
"$#	c #252525",
"%#	c #131414",
"&#	c #A4A5A7",
"*#	c #F4F3F4",
"=#	c #F3F3F4",
"-#	c #F2F2F3",
";#	c #D9DADA",
">#	c #D3D3D4",
",#	c #EDEDEE",
"'#	c #EFF0F1",
")#	c #F1F1F1",
"!#	c #F2F3F3",
"~#	c #5F6266",
"{#	c #191A19",
"]#	c #3D3D3D",
"^#	c #3A3736",
"/#	c #2E4555",
"(#	c #197AA8",
"_#	c #0E91C3",
":#	c #0EA1D8",
"<#	c #0EA6E0",
"[#	c #0E98CE",
"}#	c #1178A5",
"|#	c #1E3746",
"1#	c #33312F",
"2#	c #474747",
"3#	c #56585C",
"4#	c #F0F1F1",
"5#	c #F0F0F0",
"6#	c #D5D5D6",
"7#	c #CDCECE",
"8#	c #E6E6E7",
"9#	c #EAE9EA",
"0#	c #EBECEC",
"a#	c #515459",
"b#	c #505050",
"c#	c #2D2D2D",
"d#	c #3E3937",
"e#	c #3D4448",
"f#	c #3A535C",
"g#	c #344E57",
"h#	c #2E373B",
"i#	c #312C2A",
"j#	c #323232",
"k#	c #4C4C4C",
"l#	c #484A4F",
"m#	c #F5F6F6",
"n#	c #EEEDEE",
"o#	c #ECECED",
"p#	c #EBECEB",
"q#	c #CFCFD0",
"r#	c #C7C7C8",
"s#	c #E1E2E2",
"t#	c #838589",
"u#	c #121417",
"v#	c #3F3F3F",
"w#	c #414141",
"x#	c #232423",
"y#	c #191B1D",
"z#	c #7D8084",
"A#	c #E7E6E8",
"B#	c #C8C8C9",
"C#	c #C1C1C2",
"D#	c #D7D8D8",
"E#	c #D7D7D8",
"F#	c #D8D7D8",
"G#	c #DCDCDD",
"H#	c #E3E4E5",
"I#	c #75787D",
"J#	c #1E2125",
"K#	c #1D1F22",
"L#	c #262729",
"M#	c #191B1E",
"N#	c #72757A",
"O#	c #DFE0E1",
"P#	c #ECECEC",
"Q#	c #E1E1E1",
"R#	c #DDDDDE",
"S#	c #DBDBDC",
"T#	c #DADADA",
"U#	c #D9D8D9",
"V#	c #D9D9D9",
"W#	c #C1C1C1",
"X#	c #BDBDBD",
"Y#	c #D1D2D2",
"Z#	c #D0D0D0",
"`#	c #CFCFCF",
" $	c #D1D1D1",
".$	c #D4D3D4",
"+$	c #DFDFE0",
"@$	c #CACBCD",
"#$	c #C9CBCD",
"$$	c #E0E1E2",
"%$	c #F7F6F6",
"&$	c #D6D5D6",
"*$	c #D2D2D3",
"=$	c #D0D0D1",
"-$	c #CFCECF",
";$	c #D0D1D0",
">$	c #BBBBBC",
",$	c #BABBBC",
"'$	c #D3D2D4",
")$	c #CACACB",
"!$	c #C6C6C7",
"~$	c #C8C8C8",
"{$	c #CBCBCB",
"]$	c #CECECF",
"^$	c #D6D6D7",
"/$	c #E4E4E5",
"($	c #E5E4E5",
"_$	c #D4D4D4",
":$	c #CDCCCD",
"<$	c #C9C9CA",
"[$	c #C7C7C7",
"}$	c #C6C5C6",
"|$	c #C7C7C6",
"1$	c #C9C9C9",
"2$	c #CCCCCD",
"3$	c #B6B6B7",
"4$	c #B5B5B6",
"5$	c #D4D4D5",
"6$	c #C3C3C4",
"7$	c #C0C0C0",
"8$	c #BFBFBF",
"9$	c #C0BFC0",
"0$	c #C2C1C2",
"a$	c #C4C4C4",
"b$	c #CCCDCD",
"c$	c #D1D1D2",
"d$	c #C3C4C4",
"e$	c #BFBEBF",
"f$	c #C0C0C1",
"g$	c #C2C2C3",
"h$	c #CACACC",
"i$	c #CBCBCC",
"j$	c #B0B0B1",
"k$	c #C9CACB",
"l$	c #D2D3D4",
"m$	c #C3C2C3",
"n$	c #BCBCBD",
"o$	c #BAB9BA",
"p$	c #B7B7B8",
"q$	c #B8B8B8",
"r$	c #BCBBBC",
"s$	c #BEBDBE",
"t$	c #C2C2C2",
"u$	c #B9B9BA",
"v$	c #B9B9B9",
"w$	c #BABABB",
"x$	c #BDBDBE",
"y$	c #A6A6A7",
"z$	c #C3C4C5",
"A$	c #B4B4B4",
"B$	c #B3B3B3",
"C$	c #B4B3B4",
"D$	c #B4B4B5",
"E$	c #B5B5B5",
"F$	c #B7B6B7",
"G$	c #B6B6B6",
"H$	c #B8B8B9",
"I$	c #BEBEBE",
"J$	c #C4C4C5",
"K$	c #C7C8C9",
"L$	c #BFBFC0",
"M$	c #A5A6A7",
"N$	c #A7A8A9",
"O$	c #A8A9AA",
"P$	c #A6A5A6",
"Q$	c #A3A2A3",
"R$	c #A1A1A1",
"S$	c #A1A0A1",
"T$	c #A1A0A0",
"U$	c #A2A2A3",
"V$	c #A3A2A4",
"W$	c #A3A3A4",
"X$	c #A3A3A3",
"Y$	c #A2A2A2",
"Z$	c #A2A1A2",
"`$	c #A1A1A2",
" %	c #A0A0A1",
".%	c #A4A4A4",
"+%	c #A8A8A9",
"@%	c #AAAAAB",
"      . + @ @ @ @ # # # # # # # # $ $ $ $ # # # @ @ % + &       ",
"  * = - ; > > > > > > > > > > > > > > > > > > > > > > ; - , '   ",
"' ) > > > > > > > > > > > > > > > > > > > > > > > > > > > ; , ! ",
"+ - ~ > > > > > > > > > > > > > > > > > > > > > > > > > ; ; { ] ",
"$ ; ; ~ > > > > > > > > > , ^ / ( ^ , > > > > > > _ : ; ; ; ; @ ",
"< ; ; ; ; > > > > > { [ } | 1 2 3 4 5 6 [ { > > 7 8 9 > ; ; ; < ",
"< ; ; ; ; ; ~ > > 0 a b c d e f g h i j b k l > > m n > ; ; ; o ",
"< ; ; ; ; ; ; > p q r s t u v w x y z A B C D E > > > ; ; ; - < ",
"$ F ; ; ; ; > G H I J K L M N O P Q R S T U V W / > ; ; ; - - < ",
"$ - F ; ; ; X Y Z `  ...+.@.#.$.%.&.*.=.-.;.>.,.'.).; ; - - - !.",
"# - - - ~.{ {.].^./.(._.:.<.[.}.> |.1.2.3.4.5.6.7.] 8.- - - 9.$ ",
"@ 9.- - - 0.a.b.c.d.e.f.g.h.i.j.> k.l.m.n.o.p.q.r.@ s.- - { { $ ",
"t.{ { u.; ^ v.w.;.x.y.z.A.B.C.D.E.F.G.H.I.J.K.c.L.M.N.- { { O.# ",
"P.O.{ { Q.R.S.T.d.U.V.W.X.Y.Z.`. +.+++@+#+$+%+&+*+=+-+Q.{ O.8.l ",
";+8.O.{ >+,+'+5.L )+!+~+{+]+^+/+(+_+:+<+[+}+|+1+2+3+O.>+8.8.4+t.",
"5+4+6+8.>+> 7+8+9+0+a+b+c+d+e+f+g+h+i+j+k+l+m+n+o+p+; q+4+4+Q.+ ",
"] r+4+s+t+> u+v+w+x+y+z+A+B+C+D+E+F+G+H+I+J+K+L+o+M+> ,+N+Q.O+P+",
"G ,+Q.r+O+> Q+R+S+T+U+V+W+X+Y+Z+`+ @.@+@@@#@$@u+%@&@> *@Q.,+=@-@",
"[ >+,+O+Q.;@>@c.,@'@)@!@~@{@]@^@/@(@_@:@<@[@}@|@1@2@> O+,+3@4@{.",
"5@4@6@,+,+Q.7@8@9@0@a@b@c@d@e@f@g@h@i@j@k@l@m@q.n@o@8.>+p@q@= r@",
"s@t@u@q@>+Q.> v@8@w@x@y@z@A@B@C@D@E@F@G@H@I@J@K@L@M@r+4@4@t@N@O@",
"P@Q@-+, R@) - S@T@U@V@W@X@Y@Z@`@ #.#+#@###J@$#%#&#; R@*#=#-#Q@;#",
">#,#0.'#)#!#q@> ~#{#]#^#/#(#_#:#<#[#}#|#1#1+2#3#> 4@)#4#5#s.X 6#",
"7#8#l 9#0#,#s.>+> a#L b#c#d#e#f#g#h#i#j#k#v+l#9.m#n#o#p#< o l q#",
"r#p & s#( + # 0#R@> t#u#/.v#&+&+w#/.x#9+y#z#> -+^ A#5+/ G G [ B#",
"C#D#E#F#;#G#* -@8#n#- H#I#J#K#L@L#M#J#N#O#{ P#] Q#R#S#T#U#V#D#W#",
"X#>#Y#Z#`# $.$E#S#+$-@P#>+> G @$#$$$> %$!.$$R#H &$*$=$`#-$=$;$>$",
",$'$q#)$r#!$~${$]$*$^$H s@5@G /$($G R#W D _$=$:$<$[$}$|$1${$2$3$",
"4$5$=$<$6$7$8$9$0$a$r#)$b$]$=$ $c$Z#]$2$<$!$d$W#9$e$f$g$!$h$i$j$",
"  k$l$i$m$n$o$p$q$o$r$s$8$f$C#g$t$C#7$8$X#>$u$q$v$w$x$g$B#5 g$  ",
"  y$z$k$6$>$3$A$B$C$D$E$3$F$p$q$q$p$F$G$4$A$C$D$E$H$I$J$K$L$M$  ",
"      N$O$P$Q$R$S$T$S$Q$U$V$W$X$Y$Z$`$R$R$ %R$S$Y$.%+%@%N$      "};
